<?xml version="1.0" encoding="utf-8"?>
<!-- Generator: Adobe Illustrator 16.0.0, SVG Export Plug-In . SVG Version: 6.00 Build 0)  -->
<!DOCTYPE svg PUBLIC "-//W3C//DTD SVG 1.0//EN" "http://www.w3.org/TR/2001/REC-SVG-20010904/DTD/svg10.dtd">
<svg version="1.0" id="Layer_1" xmlns="http://www.w3.org/2000/svg" xmlns:xlink="http://www.w3.org/1999/xlink" x="0px" y="0px"
	 width="800px" height="800px" viewBox="0 0 800 800" enable-background="new 0 0 800 800" xml:space="preserve">
<g>
	<path fill="none" d="M178.829,331.812l-71.344-25.357l-95.124,46.214l29.396,98.952l65.285,41.926l91.957-58.477L178.829,331.812z"
		/>
	<path fill="#D9D9D9" d="M107.485,306.454l-95.127,46.214l66.749,33.105l99.722-53.962L107.485,306.454z"/>
	<path fill="#ECECEC" d="M198.999,435.069l-91.96,58.477L79.107,385.771l99.722-53.959L198.999,435.069z"/>
	<path fill="#9C9B9B" d="M41.754,451.62l-29.393-98.952l66.748,33.105l27.935,107.772L41.754,451.62z"/>
	<g>
		<path fill="#003E75" d="M48.282,364.586c-0.209,0.104-1.142,1.812-0.878,2.04c0.085,0.262,1.458,1.434,1.641,1.104
			c0.153-0.278,1.211-1.755,0.877-2.041C49.838,365.429,48.466,364.255,48.282,364.586 M76.037,460.889
			c-0.122,0.022-0.697,0.437-0.619,0.727c0.038,0.187,0.534,0.642,0.698,0.596c0.116-0.029,0.748-0.473,0.689-0.745
			C76.788,461.271,76.272,460.819,76.037,460.889 M44.574,351.781c0.779,0.672,3.018,0.452,3.606-0.614
			c0.301-0.537,0.73-1.098,0.941-1.693c0.382-0.688,0.033-1.823-0.074-2.563c-0.123-0.836,0.473-1.574,0.822-2.206
			c0.43-0.772,1.128-0.531,1.742-0.813c0.665-0.148,1.075-1.281,1.417-1.9c0.357-0.638-0.216-0.468-0.538-0.396l-4.423,0.988
			c-0.893,0.201-2.031,0.166-2.588,1.171l-2.308,4.159c-0.875,1.573,0.499,3.08,1.401,3.864 M38.315,353.58l1.587-2.656
			c0.157-0.263,1.683-2.34,1.506-2.697c-0.178-0.355-2.331,0.413-2.6,0.474c-0.817,0.183-1.76,0.162-2.271,1.083
			c-0.347,0.627-1.765,2.382-1.001,3.046C36.264,353.458,37.514,354.926,38.315,353.58 M26.867,360.046
			c0.528,0.459,0.957,0.44,1.553,0.308c0.783-0.18,1.567-0.353,2.35-0.526c0.549-0.122,1.352-0.484,1.863-0.04
			c1.053,0.911,1.729,1.77,3.04,1.476l2.163-0.484c0.701-0.155,0.976-0.814,1.349-1.486c0.529-0.956-1.966-2.479-2.602-2.334
			c-0.957,0.213-3.063,1.245-3.954,0.474c-0.462-0.403-0.944-0.968-1.452-1.258c-0.501-0.433-1.259-0.094-1.796,0.026l-2.077,0.464
			c-0.686,0.152-1.011,1.041-1.371,1.692C25.476,359.176,26.412,359.655,26.867,360.046 M41.42,353.438
			c0.078,0.215,0.971,0.985,1.144,0.672c0.174-0.099,0.787-1.202,0.534-1.422c-0.178-0.157-0.934-1.053-1.144-0.672
			C41.781,352.112,41.167,353.22,41.42,353.438 M40.092,354.418c-0.208,0.101-1.143,1.81-0.878,2.038
			c0.224,0.194,1.413,1.514,1.643,1.104c0.208-0.103,1.143-1.81,0.875-2.04C41.649,355.258,40.275,354.086,40.092,354.418
			 M50.89,358.584c0.743,0.426,1.003,1.15,1.142,2.083c0.115,0.8,0.063,1.768,0.632,2.26c0.516,0.556,1.151,0.997,1.712,1.479
			c1.126,0.977,2.53,2.283,3.891,0.912c1.075-1.083,0.24-2.845-0.611-3.584c-0.427-0.369-0.64-1.194-0.583-1.839
			c0.046-0.538,0.964-1.608,0.449-2.055c-1.104-0.957-2.207-1.913-3.313-2.867c-0.737-0.639-2.174-2.471-3.186-2.244l-4.306,0.96
			c-0.718,0.157-2.621,2.926-1.831,3.607l1.701,1.472c0.583,0.507,1.537,0.058,2.159-0.083c0.599-0.134,1.578-0.587,2.143-0.101
			 M54.413,347.869c0.631,0.265,1.523-0.154,2.143-0.291c1.579-0.354,2.529-0.721,3.928,0.488c1.025,0.888,2.359,1.697,3.231,2.8
			c0.523,0.45,0.533,1.555,0.634,2.249c0.148,1.009,0.291,2.01,0.444,3.016c0.132,0.914,0.783,1.046,1.25,1.612
			c0.622,0.538,0.614,2.112,0.735,2.936c0.232,1.596,2.154,2.604,3.135,3.453c0.69,0.597,1.793,0.704,2.494,0
			c0.94-0.95,0.634-2.218,0.447-3.484c-0.156-1.085,0.32-1.698,0.784-2.536l1.803-3.244c0.493-0.895,1.367-0.883,2.165-1.06
			c1.053-0.236,1.478-0.515,2.094-1.622c0.582-1.05,0.847-1.622,0.659-2.904c-0.136-0.916-0.72-2.796-0.235-3.665
			c0.398-0.721,0.725-1.39,0.462-2.3c-0.093-0.621-0.48-0.729-0.771-1.118c-0.431-0.37-0.457-1.053-0.542-1.629
			c-0.258-1.747,1.785-2.903,1.921-4.555c0.075-0.887-0.234-1.388-0.911-1.238l-2.588,0.579c-0.501,0.112-1.073,0.351-1.585,0.354
			c-0.746,0.168-1.657-0.947-2.197-1.452c-0.833-0.779-2.762,0-3.868,0.246c-0.979,0.218-3.45,0.622-3.831,1.322
			c-0.766,1.396-1.21,2.666-2.601,2.979l-4.706,1.053c-1.171,0.259-1.958,2.59-2.576,3.695c-0.396,0.722-0.88,0.836-1.541,0.987
			c-0.873,0.191-1.187,0.671-1.681,1.549C52.728,346.776,53.965,347.684,54.413,347.869 M90.748,363.642
			c0.198,0.38,0.047,0.968,0.381,1.257c0.576,0.499,1.009,1.231,0.878,2.213c-0.05,0.382-1.438,2.122-0.625,2.475
			c0.314,0.136,0.553-1.079,0.873-1.148c0.427-0.268,1.04-0.05,1.456-0.381c0.865-0.694,0.846-2.083,0.047-2.747l-1.474-1.224
			c-0.739-0.616,0.156-0.983,0.063-1.602c-0.099-0.677-0.901-0.319-1.194-0.572c-0.335-0.201-0.14-1.535-0.638-1.367
			c-0.116,0.037-0.477,0.704-0.507,0.814c-0.166,0.3-0.063,1.098,0.054,1.398C90.27,363.156,90.565,363.287,90.748,363.642
			 M100.351,378.073c0.164-0.096,0.65-0.991,0.409-1.197c-0.165-0.142-0.762-0.869-0.962-0.513
			c-0.162,0.096-0.646,0.992-0.407,1.196c0.075,0.203,0.797,0.81,0.963,0.514 M165.965,367.556c0.323-0.583,1.373-0.734,1.851-0.867
			c0.856-0.225,1.232-1.228,1.378-1.681c0.211-0.648,0.174-1.3,0.078-1.934c-0.071-0.491-0.266-1.479-0.725-2.146
			c-0.104-0.169-0.761-1.003-1.107-0.785c-0.477,0.291,0.418,2.547,0.357,3.657c-0.037,0.791-0.979,1.243-1.444,1.434
			c-0.559,0.235-1.029,0.493-1.32,1.046c-0.265,0.497-1.979,3.445-1.797,3.862c0.178,0.401,0.939,0.06,1.176-0.081
			c0.357-0.218,0.66-0.807,0.869-1.183C165.646,368.223,165.603,368.211,165.965,367.556 M169.233,359.524
			c0.184-0.104,0.925-1.158,0.649-1.627c-0.153-0.259-0.778-0.982-1.248-0.759c-0.179,0.102-0.819,1.13-0.646,1.627
			c0.09,0.225,0.835,0.907,1.245,0.762 M154.019,397.159c-0.062-0.428-0.056-1.299-0.381-1.587l-2.403-2.128
			c-0.215-0.186-2.061-2.101-2.329-1.988c-0.365,0.154-0.073,2.065,0.616,2.688c0.873,0.788,1.803,1.512,2.701,2.268
			c0.803,0.672,0.422,1.547,0.811,2.51c0.067,0.453,2.035,2.245,2.229,2.088c0.248-0.199-0.284-2.439-0.564-2.682
			C154.289,397.977,154.106,397.768,154.019,397.159 M140.515,393.229c-0.12,0.072-0.481,0.756-0.435,1.132
			c0.033,0.28,0.393,0.621,0.724,0.542c0.364-0.141,0.538-0.575,0.295-0.993c-0.08-0.149-0.381-0.82-0.582-0.681 M161.274,378.247
			c-0.067-0.18-0.456-0.156-0.709,0.125c-0.266,0.378-0.413,0.822-0.429,1.283c0,0.325,0.344,0.765,0.713,0.72
			C161.353,380.239,161.485,378.755,161.274,378.247 M128.322,414.997c-0.305-0.081-1.647,2.677-1.721,3.12
			c-0.099,0.594,0.282,1.223,0.18,1.816c-0.096,0.563-0.576,1.136-0.834,1.597c-0.276,0.494,0.104,1.043,0.166,2.153
			c0.038,0.706,0.663,1.088,1.148,1.389c0.928,0.572,2.205-0.854,2.322-2.072c0.082-1.214-0.416-2.83-0.59-4.025
			C128.934,418.583,128.698,415.094,128.322,414.997 M163.634,400.646c0.408-0.243,1.203-1.466,1.075-2.067
			c-0.08-0.357-1.246-1.611-1.802-1.331c-0.493,0.32-1.164,1.578-1.072,2.064C161.937,399.846,163.273,400.858,163.634,400.646
			 M168.509,397.372c0.532,0.056,1.221-0.273,1.748-0.39c0.901-0.201,1.19,1.247,1.302,2c0.162,1.096,0.204,2.189,1.206,2.615
			c0.851,0.349,1.724-0.391,2.087-1.053c0.225-0.396,0.71-0.792,1.107-0.449c0.169,0.074,0.806,0.912,0.974,0.775
			c0.158-0.129-0.192-1.613-0.229-1.845c-0.078-0.539-0.723-0.896-1.043-1.171c-0.39-0.338-0.904-1.001-1.387-1.133
			c-0.483-0.135-1.066,0.464-1.512,0.06c-0.771-0.698-1.508-1.794-2.505-1.573c-0.392,0.088-3.357,0.392-3.437,0.875
			C166.765,396.438,168.215,397.437,168.509,397.372 M180.165,427.152c-0.18,0.104-0.886,1.337-0.647,1.63
			c0.156,0.189,0.909,0.956,1.246,0.757c0.184-0.102,0.835-1.232,0.649-1.627c-0.09-0.223-0.925-0.941-1.248-0.762 M193.282,421.915
			c-0.089-0.223-0.888-0.984-1.248-0.76c-0.181,0.104-0.828,1.299-0.649,1.628c0.15,0.266,0.871,0.983,1.251,0.761
			C192.891,423.438,193.446,422.376,193.282,421.915 M190.284,424.678c-0.235,0.291-0.366,0.676-0.715,1.188
			c-0.229,0.328-2.093,3.094-1.704,3.524c0.256,0.285,1.032,1.146,1.246,0.764c0.235-0.395,0.574-1.04,0.724-1.306
			c0.649-1.168,1.967-2.887,1.702-3.526C191.452,425.098,190.587,424.273,190.284,424.678 M61.561,406.476
			c-0.17,0.061-0.659,0.42-0.561,0.663c0.041,0.162,0.611,0.584,0.896,0.528c0.142-0.032,0.661-0.435,0.56-0.665
			C62.413,406.891,61.769,406.399,61.561,406.476 M57.152,403.002c-0.265-0.155-1.058,0.376-0.672,0.7
			c0.892,0.668,1.276,1.037,1.459,1.194c1.058,0.906,1.549,1.452,1.883,1.331c0.208-0.106,0.833-0.609,0.428-0.987
			c-0.267-0.232-0.387-0.313-0.739-0.559C58.398,403.917,57.892,403.427,57.152,403.002 M163.149,389.245
			c0.313,0.273,1.174-1.295,1.191-1.594c0.09-0.55-0.863-1.459-1.209-1.428c-0.413,0.038-1.175,1.295-1.189,1.594
			C161.876,388.445,162.914,389.216,163.149,389.245 M161.497,385.826c0.205,0.181,0.766-0.844,0.777-1.038
			c0.058-0.36-0.564-0.953-0.789-0.933c-0.269,0.023-0.769,0.846-0.779,1.04C160.666,385.308,161.342,385.809,161.497,385.826
			 M161.786,404.09c-0.867-0.813-1.797-1.557-2.692-2.331c-0.175-0.151-0.778-0.784-1.002-0.584c-0.187,0.17-0.829,1.24-0.56,1.473
			c0.262,0.309,0.703,0.609,0.882,0.767l1.811,1.563c0.175,0.152,0.637,0.603,0.9,0.552
			C161.39,405.477,162.114,404.398,161.786,404.09 M157.737,398.322c0.808-0.183,1.592-0.124,2.081-1.003
			c0.354-0.637,1.386-1.86,1.255-2.715c-0.172-1.188-0.36-2.378-0.522-3.569c-0.078-0.594-0.831-2.628-1.419-1.909
			c-0.07,0.143-0.1,0.3-0.087,0.458c0.046,1.006,0.293,1.526-0.174,2.369c-0.344,0.625-0.958,2.393-1.635,2.543
			c-0.311,0.067-1.023,0.044-1.271,0.284c-0.309,0.28-0.201,0.646-0.143,1.037c0.165,1.129,0.728,2.771,1.917,2.505"/>
		<path fill="#003E75" d="M89.054,368.949c0.581-0.131,1.59-0.975,1.453-1.896c-0.09-0.613-0.014-1.887-0.686-1.736
			c-0.842,0.195-1.455,0.919-1.511,1.78C88.27,367.771,88.4,369.092,89.054,368.949 M99.773,362.126
			c0.021-0.104,0.132-0.301-0.029-0.325c-0.142-0.021-0.365,0.004-0.464,0.175c-0.056,0.103-0.122,0.322,0.034,0.347
			C99.448,362.342,99.737,362.282,99.773,362.126 M181.341,413.507c-0.135-0.885-1.226-1.454-1.759-1.918
			c-0.675-0.581-1.948-1.265-2.402-2.147c-0.24-0.456-0.229-1.24-0.306-1.759c-0.075-0.526-0.641-0.828-0.956-1.101
			c-0.408-0.354-0.215-1.214-0.403-1.695c-0.04-0.304-0.985-1.346-1.224-1.159c-0.253,0.205,0.233,2.191,0.273,2.465
			c0.107,0.744,0.407,1.665-0.128,2.267c-0.57,1.032-3.029-1.07-3.153-1.918c-0.092-0.627-0.585-1.807-1.26-1.659
			c-0.756-0.065-1.115,1.01-1.469,1.645c-0.462,0.835-0.517,1.108-1.236,0.486c-0.732-0.634-0.985,0.48-1.391,1.209
			c-0.395,0.713-0.171,1.366-0.052,2.181c0.133,0.906-0.367,1.468-0.766,2.187c-0.723,1.3-2.555,0.268-3.244,1.518
			c-0.343,0.617-0.839,1.185-0.724,1.972c0.117,0.791,0.105,1.971,0.394,2.689c0.107,0.73,1.02,0.738,1.134,1.513l0.447,3.077
			c0.128,0.845,0.243,1.121,0.82,1.625c0.796,0.683,0.706-0.396,1.248-0.942c0.373-0.667,1.394-0.096,1.766-0.767
			c0.459-0.468,0.515-1.47,1.18-1.617c0.588-0.131,1.36-0.501,1.957-0.437c0.604-0.135,1.153,0.998,1.672,1.222
			c0.581,0.501,1.271-0.246,1.569-0.785c0.477-0.854,0.657-1.847,1.477-1.136c1.075,0.924,0.181,3.527,1.166,4.38
			c0.398,0.345,1.127,1.301,1.657,1.18l2.305-0.517c0.458-0.102,0.997-1.053,1.143-1.563c0.325-0.587-0.164-2.141-0.255-2.763
			c-0.225-1.519,1.326-2.237,1.111-3.694l-0.592-4.033 M82.271,417.57c-0.281-0.409-0.758-0.706-1.102-1.002
			c-1.493-1.298-3.007-2.593-4.501-3.889c-1.05-0.921-1.541-1.185-2.821-0.891c-1.464,0.329-2.924,0.658-4.386,0.972
			c-1.346,0.311-2.136-2.267-3.563-1.956c-1.575,0.347-3.153,0.706-4.726,1.051c-0.184,0.05-0.381,0.067-0.544,0.179
			c-0.313,0.2-0.807,1.541-1.185,1.508c-0.377-0.032-0.928-0.546-1.221-0.792c-1.479-1.244-2.836-2.358-4.313-3.587
			c-0.346-0.313-0.649-0.471-0.995-0.987c-0.354-0.517-0.268-2.92-0.956-2.775c-1.134,0.266-3.433,1.25-3.762-0.964
			c-0.246-1.66-1.017-3.945,0.247-5.225c0.46-0.459,1.263-0.459,1.806-0.59c0.806-0.164,1.593-0.346,2.384-0.523
			c0.965-0.216,2.956,2.988,3.395,0.738c0.146-0.913-1.148-1.645-1.477-1.922c-0.723-0.628-0.79-1.33-0.953-2.365
			c-0.229-1.657,1.396-2.973,1.906-4.35c0.492-0.904-0.231-1.973,0.018-2.924c0.18-0.657,0.672-1.3,0.986-1.854
			c0.492-0.887,0.981-1.793,1.491-2.692c0.327-0.575,0.789-1.183,0.675-1.956c-0.132-0.968-0.295-1.657,0.179-2.512
			c0.459-0.822,0.757-1.395,1.594-1.592c1.524-0.329,2.906-0.562,3.465-2.678c0.163-0.64-0.017-1.822-0.213-2.431
			c-0.116-0.77-0.903-1.246-1.362-1.642c-0.727-0.622-1.43-1.231-2.15-1.854c-0.446-0.394-0.973-1.019-1.579-0.887l-3.988,0.887
			c-0.675,0.147-1.085,1.247-1.428,1.889c-0.447,0.788-0.296,1.427-0.166,2.314l0.394,2.727c0.081,0.557-0.604,2.544-1.25,2.021
			c-0.277-0.085-0.622-0.526-0.866-0.725c-0.728-0.609-1.461-1.212-2.202-1.805l-3.891-3.203c-0.872-0.707-1.098-2.939-0.524-3.973
			c0.722-1.281,2.218-3.023,1.971-4.696c-0.134-0.807-0.134-1.84-0.726-2.363c-0.656-0.577-1.328-1.151-1.984-1.726
			c-0.838-0.724-0.493,0.756-0.394,1.345c0.13,0.923-0.247,2.303-1.099,2.497c-1.187,0.542-2.681,0.591-3.913,0.872
			c-0.819,0.178-1.64,0.358-2.462,0.541c-0.459,0.099-1.029,0.346-1.51,0.148c-1.133-0.477-2.002-2.465-3.302-2.168
			c-1.59,0.345-3.181,0.705-4.762,1.05c-0.408,0.099-0.9,0.112-1.298,0.296c-0.899,0.197-0.998,1.74-1.769,2.218
			c-1.659,1.035-2.777-0.147-4.091-1.282c-1.065-0.919-2.036-0.409-3.248-0.147c-0.134,0.034-0.253,0.063-0.385,0.079l3.135,10.557
			c0.61-0.148,1.22-0.276,1.829-0.407c1.034-0.229,1.771,0.739,2.575,1.447c1.521,1.302,3.037,2.607,4.549,3.919
			c0.657,0.561,1.956,1.284,2.102,2.384c0.561,3.808,1.134,7.636,1.691,11.462c0.163,1.134,0.197,2.509,0.523,3.596
			c0.183,1.217,2.169,2.316,2.862,2.923c1.411,1.215,2.806,2.432,4.201,3.646c0.328,0.278,0.787,0.835,1.131,0.213
			c0.478-0.855,0.429-1.199-0.212-1.774c-1.297-1.12-2.594-2.232-3.893-3.366c-0.471-0.41,0-1.741,0.544-1.854
			c0.36-0.082,0.918,0.604,1.183,0.838l4.383,3.794c0.938,0.802,1.905,1.311,2.117,2.788c0.265,1.776,0.197,3.598,1.463,4.681
			l1.855,1.609c0.588,0.511,1.379,0.146,2.018,0c0.478-0.097,1.878-0.56,2.337-0.229c0.411,0.266,0.771,0.64,1.151,0.968
			c1.478,1.266,2.553,2.228,4.032,3.507c0.459,0.394,0.896,0.762,1.354,1.16c0.607,0.523-0.171,1.7-0.448,2.216
			c-0.348,0.622-1.102,1.574-0.985,2.411c0,0.609,0.195,1.28,0.276,1.873c0.279,1.953,0.575,3.924,0.872,5.878
			c0.181,1.33,2.103,2.38,2.89,3.068c0.753,0.643,2.526,1.611,2.712,2.877l0.635,4.382c0.543,3.694,1.087,7.389,1.627,11.082
			c0.117,0.79-0.377,1.428-0.721,2.02c-0.363,0.674-0.378,1.199-0.265,1.957c0.313,2.052,0.608,4.104,0.904,6.156
			c0.246,1.607,1.726,2.365,2.711,3.217c0.46,0.41,1.082,1.149,1.69,1.021c0.328,0,0.723-0.164,1.049-0.23
			c0.459-0.115,1.675-0.099,2.021-0.541c0.262-0.329-1.344-1.511-1.494-1.645c-0.542-0.477-1.116-0.835-1.247-1.724
			c-0.18-1.214-1.002-3.809-0.379-4.941c1.676-3.023,3.367-6.042,5.04-9.081c0.771-1.395-0.574-3.15,0.149-4.45
			c0.838-1.493,1.657-2.986,2.497-4.481c0.394-0.706,1.017-0.724,1.64-0.873c0.854-0.18,1.348-0.309,1.856-1.212
			c0.344-0.627,0.918-1.331,0.788-2.153c-0.116-0.835-0.246-1.657-0.358-2.477c-0.153-1.053-0.313-2.105-0.461-3.156
			c-0.099-0.654-0.314-1.427,0.015-2.036c0.41-0.719,0.808-1.425,1.198-2.15c0.393-0.704,0.068-1.789-0.05-2.543
			c-0.116-0.805-0.116-2.05-0.541-2.726 M82.943,354.933c-0.389,0.09-1.247,0.063-1.502,0.523c-0.316,0.323-0.557,1.002-0.787,1.419
			c-0.323,0.577-0.379,0.726,0.11,1.149c0.582,0.503,2.11,0.906,2.627-0.028c0.415-0.738,1.409-1.739,0.637-2.409
			C83.723,355.324,83.349,354.842,82.943,354.933 M112.1,378.535c0.203-0.235,0.221-0.307,0.2-0.387
			c-0.018-0.081-0.117-0.043-0.215,0.018c-0.138,0.085-0.291,0.138-0.451,0.157c-0.118,0-0.258,0.082-0.278,0.179
			c-0.011,0.054-0.013,0.284,0.162,0.301C111.857,378.833,112.009,378.646,112.1,378.535"/>
		<path fill="#003E75" d="M151.196,387.213c0.713,0.856,0.36,1.99,0.191,2.93c-0.115,0.628,0.103,1.346,0.335,1.668
			c0.171,0.201,0.343,0.347,0.458,0.448l0.864,0.743c0.113,0.099,0.404,0.35,0.578,0.354c0.62,0.019,0.771-0.684,0.421-0.919
			c-0.56-0.401-1.08-0.854-1.555-1.353c-0.343-0.387-0.381-2.299-0.044-2.485c0.154-0.063,0.332-0.035,0.46,0.073
			c0.507,0.443,0.95,1.017,1.409,0.163c0.426-0.755-0.043-2.727-0.75-3.332c-0.394-0.494-1.546-0.852-1.035-1.757
			c0.379-0.672,0.805-1.905,1.524-2.07c1.231-0.277,2.515-0.213,3.271-1.559c0.918-1.691,1.854-3.367,2.79-5.041
			c0.544-0.985,0.512-3.646-0.376-4.4l-3.595-3.103c-0.773-0.673,1.377-4.254,1.936-3.777c0.491,0.165,1.097,0.952,1.512,1.313
			c0.358,0.313,1.296,1.494,1.822,1.38c0.476-0.099,1.23-1.691,0.739-2.102c-0.626-0.542-1.299-0.887-0.754-1.872
			c0.358-0.642,0.703-1.528,1.162-2.084c0.511-0.904,1.595-0.347,2.121-1.299c0.589-1.067,2.083-2.84,1.868-4.271
			c-0.146-0.95-0.278-1.903-0.425-2.855c-0.099-0.739-0.115-2.002-0.656-2.479c-0.509-0.604-1.3-0.79-1.442-1.775
			c-0.183-1.164,0-1.69,0.523-2.643c0.343-0.605,0.736-1.724,1.41-1.87c0.657-0.148,1.316-0.281,1.972-0.427
			c1.214-0.281,3.186-0.198,3.956-1.595c0.479-0.838,0.808-1.231,1.627-1.411c0.97-0.215,1.181-0.116,1.361,1.1
			c0.133,0.869,0.28,1.546-0.148,2.333c-0.376,0.672-1.247,1.739-1.114,2.643c0,1.56,0.492,3.314,0.721,4.843
			c0.083,0.607,1.053,1.82,1.494,1.021c0.477-0.84,0.937-1.691,1.411-2.529c0.313-0.592,0.955-1.381,0.84-2.168
			c-0.018-0.674-0.215-1.431-0.313-2.085c-0.163-1.086-0.313-2.15-0.478-3.218c-0.099-0.708-0.326-1.479,0.034-2.119
			c0.443-0.789,0.757-1.232,1.527-1.411c0.33-0.067,0.778-0.102,1.188-0.216l-1.209-6.188l-7.409-2.635
			c-0.182-0.026-0.368-0.019-0.547,0.022l-3.99,0.888l-5.535,1.23c-0.884,0.198-1.889,0.624-2.791,0.624
			c-1.345,0.313-2.182-2.363-3.595-2.053c-1.547,0.345-3.088,0.705-4.633,1.053c-0.999,0.213-2.379,0.919-3.298,0.146
			c-0.656-0.557-1.331-1.115-1.987-1.675c-0.494-0.409-1.198-1.264-1.858-1.115c-1.296,0.018-6.943,1.053-7.518,2.085
			c-1.577,2.84-3.153,5.681-4.729,8.505c-0.607,1.116-2.957,1.066-3.892,1.281c-0.608,0.131-1.216,0.263-1.822,0.411
			c-0.659,0.147-0.986,1.017-1.315,1.642c-0.36,0.64-0.688,1.479-1.134,2.038c-0.36,0.639-1.246,0.654-1.802,0.768l-2.647,0.592
			c-0.559,0.135-1.429,0.135-1.791,0.789c-1.032,1.247-1.099,2.79-2.657,3.151c-0.788,0.167-1.577,0.345-2.365,0.527
			c-0.773,0.166-1.313-0.509-1.919-1.018c-0.262-0.231-0.808-0.575-0.526-1.102c0.133-0.396,0.442-0.706,0.837-0.839
			c0.213-0.097,1.364-0.079,1.03-0.688c-0.208-0.359-0.654-0.625-0.931-0.851c-0.562-0.479-1.085-1.12-1.807-0.954
			c-0.674,0.147-1.842,0.704-2.446,0.163c-0.608-0.346-0.92-1.068-1.675-0.903c-0.819,0.18-1.627,0.377-2.446,0.561
			c-1.164,0.259-1.562,1.393-2.187,2.543c-1.032,1.838-2.052,3.678-3.069,5.517c-0.723,1.313-1.099,1.923-0.868,3.545l0.392,2.645
			c0.083,0.606,1.084,1.791,1.627,1.659c0.279-0.04,0.541-0.197,0.804-0.179c0.508,0.089,0.661,0.473,1.164,0.493
			c0.594,0.013,1.677-0.265,2.037-0.89c0.411-0.771,0.707-1.297,0.56-2.232c-0.116-0.852-1.018-1.782-1.018-2.636
			c-0.134-0.871,0.656-1.837,1-2.463c0.445-0.805,1.479-1.831,2.383-1.717c1.172,0.15,1.6,0.859,1.053,1.913
			c-0.629,1.221-2.396,1.336-2.385,3.824c0.004,1.171,0.975,1.156,1.739,1.11c1.032-0.063,1.163,0.431,1.018,1.582
			c-0.047,0.371-0.314,0.828-0.643,1.256c-0.497,0.599-1.306,0.328-1.909,0.818c-0.454,0.452-0.006,0.852-0.719,1.332
			c-0.354,0.241-0.766,0.306-1.029,0.366c-0.439,0.099-1.127,0.18-1.849,0.309c-0.291,0.03-0.579-0.078-0.778-0.294
			c-0.07-0.082-0.067-0.157-0.035-0.236c0.055-0.129,0.093-0.263,0.113-0.401c0.084-0.592-0.709-1.264-0.96-1.028
			c-0.163,0.157-0.546,0.776-0.358,1.104c0.19,0.329,0.569,0.611,0.677,0.902c0.045,0.124-0.01,0.281-0.179,0.345
			c-0.668,0.251-1.054,0.471-1.327,0.963c-0.969,1.726-0.172,3.092-1.657,5.002c-0.291,0.372-0.385,0.858-0.724,1.313
			c-0.46,0.821,0.112,1.904,0.112,2.777c0.398,2.69-2.737,1.345-3.412,2.558c-0.509,0.526-0.477,1.183-0.36,1.904
			c0.05,0.412,0.13,2.431,0.444,2.627c0.558,0.382,0.837,0.906,1.494,0.759c0.655-0.148,1.59-0.1,1.986-0.822
			c0.18-0.312,0.477-0.69,0.542-1.085c0.08-0.474-0.231-0.934,0.016-1.396c0.425-0.755,0.852-1.527,1.282-2.299
			c0.474-0.869,1.312-0.477,1.903-1.083c0.526-0.526,0.641-1.692,1.46-0.986c0.672,0.575,1.345,1.168,2.021,1.741
			c0.148,0.116,0.459,0.591,0.836,1.675c0.117,0.321-0.035,1.389,0.28,1.463c0.307,0.068,0.641-1.083,0.724-1.231
			c0.229-0.41,0.049-1.249,0.194-1.464c0.099-0.129,0.593-0.03,0.511-0.541c-0.016-0.13-0.592-0.605-0.592-0.623
			c0-0.016-1.524-1.331-1.607-1.395c-0.396-0.346-1.562-0.971-1.12-1.758c0.594-1.067,0.972-0.574,1.678,0.031
			c0.64,0.562,1.281,1.101,1.904,1.66c0.622,0.54,0.892,1.443,0.772,2.299c-0.101,0.732,1.046,2.303,1.613,1.887
			c0.604-0.363-0.087-2.068,0.555-2.593c0.426-0.329,1.361-0.641,1.214-1.591c-0.048-0.268-0.166-0.691-0.098-1.037
			c0.05-0.344,0.326-0.689,0.478-0.969c0.244-0.426,0.77-1.904,1.163-2.102c0.487-0.224,1.412,1.119,1.953,0.135
			c0.245-0.404,0.494-1.232,1.299-1.416c0.837-0.18,1.097,0.116,1.789,0.706c0.493,0.428,1.165,0.772,1.281,1.562
			c0.099,0.721,0.296,2.199-0.591,2.396c-0.543,0.33-1.396,0.313-2.003,0.444c-0.675,0.147-1.002-0.952-1.658-0.805
			c-0.542,0.115-1.26,0.045-1.479,0.706c-0.455,1.366-1.165,1.538-1.639,2.393c-0.265,0.493-0.448,1.936-0.055,2.264
			c0.706,0.607,1.776,0.105,2.576-0.075c1.908-0.426,2.813,1.953,2.549,3.449c-0.17,0.963-3.12,1.494-3.745,1.232
			c-0.721-0.298-0.999-0.97-1.837-0.772c-0.657,0.147-1.742,0.129-2.168,0.901c-0.361,0.642-0.739,1.677-1.413,1.824
			c-0.64,0.146-1.756,0.672-2.349,0.146c-0.575-0.327-1.114-0.968-1.642-1.411c-0.738-0.641-0.394-1.873-1.132-2.515
			c-0.593-0.507-1.281-0.194-1.921-0.044c-0.656,0.128-1.674,0.128-2.2,0.672c-0.541,0.525-0.704,1.493-1.23,2.02
			c-0.562,0.559-1.596,0.539-2.267,0.689c-1.102,0.246-2.232,2.758-2.053,4.038c0.296,1.953-0.639,3.005-1.494,4.548
			c-0.607,1.084-1.954,2.692-1.741,4.122c0.263,1.822,0.526,3.628,0.807,5.45c0.179,1.28,2.133,2.363,2.891,3.021
			c0.702,0.61,1.396,1.2,2.082,1.807c0.446,0.38,0.953,0.984,1.528,0.873c1.082,0,3.006-0.347,3.662-1.513
			c0.426-0.787,0.722-1.445,1.523-1.627c0.71-0.147,1.594-0.575,2.238-0.016c1.081,0.969,1.952,1.495,2.181,3.152l0.937,6.342
			c0.148,1.017,0.148,3.693,0.953,4.382c0.424,0.539,1.096,0.77,1.494,1.361c0.313,0.476,0.326,1.217,0.409,1.791
			c0.313,2.151,0.643,4.316,0.951,6.468c0.247,1.627,0.447,2.233,1.562,3.203c0.953,0.819,2.185,2.464,3.417,2.181
			c1.541-0.341,3.086-0.688,4.628-1.027c1.163-0.268,1.922-2.517,2.547-3.63c0.343-0.629,0.178-1.269,0.079-1.957l-0.492-3.364
			c-0.246-1.66,1.035-3.138,1.742-4.438c0.31-0.537,0.802-1.179,0.688-1.918c-0.148-0.951-0.28-1.918-0.426-2.874
			c-0.116-0.77-0.147-1.46-0.705-1.954c-0.675-0.576-1.266-0.95-1.43-2.019c-0.116-0.771-0.394-1.708,0-2.414l1.43-2.561
			c0.358-0.657,0.705-1.609,1.395-1.756c0.805-0.183,1.265-1.48,1.676-2.219c0.427-0.784,0.935-1.428,0.784-2.43
			c-0.062-0.361-0.194-2.873-0.521-2.972c-0.314-0.083-1.135,1.855-1.282,2.116c-0.476,0.855-1.149,0.875-1.904,1.035
			c-1.217,0.28-2.856-1.837-3.779-2.643c-0.426-0.378-1.017-0.74-1.131-1.461c-0.135-0.937-0.278-1.872-0.409-2.809
			c-0.215-1.46-2.366-2.61-3.253-3.367c-0.54-0.475-0.592-1.149-0.691-1.903c-0.128-0.805-0.574-2.263-0.163-3.037
			c0.413-1.003,1.218-0.74,1.591,0.197c0.348,0.82,0.348,2.003,0.479,2.889c0.262,1.792,1.79,2.053,2.709,3.219
			c1.183,1.018,0.196,3.793,1.41,4.827c0.511,0.46,1.085,1.167,1.694,1.414c0.558,0.229,1.706-0.034,2.232-0.363
			c0.444-0.279,0.706-0.951,0.968-1.444c0.538-0.968,1.085-1.938,1.626-2.905c0.756-1.365,1.804-2.597,1.264-4.368
			c-0.345-2.3-2.741-0.822-3.759-1.691c-0.659-0.578-1.32-1.154-1.985-1.725c-0.232-0.212-0.61-0.508-0.362-0.952
			c0.081-0.41,0.604-1.149,0.964-0.838c0.53,0.148,1.187,1.02,1.629,1.41c0.593,0.512,1.561,0.05,2.186-0.079
			c0.639-0.148,1.427-0.509,2.003,0c0.703,0.607,1.196,0.492,1.987,0.326l2.181-0.49c0.69-0.147,1.43,0.771,1.953,1.214
			c0.494,0.428,1.118,0.788,1.233,1.608c0.15,1.02,0.296,2.054,0.443,3.086c0.111,0.675,0.131,1.431,0.643,1.86
			c0.669,0.589,1.328,1.165,2,1.738c0.594,0.509,0.954,0.918,1.463,0.016c0.526-0.97,0.345-1.723,0.18-2.807
			c-0.247-1.657,1.247-3.415,1.954-4.68c0.293-0.543,0.574-1.281,1.003-1.709c0.477-0.493,1.888-0.82,2.412-0.346
			c0.593,0.33,1.165,1.005,1.692,1.464c0.18,0.146,0.377,0.392,0.593,0.509c0.546,0.344,0.819,0.066,1.276,0.082
			c0.691,0.055,1.229,0.54,1.674,0.937C150.474,386.546,151.196,387.213,151.196,387.213"/>
	</g>
	<path fill="#003E75" d="M229.802,374.138h23.981v74.381h20.195v-74.381h22.103l6.392-18.902h-72.671V374.138z M357.938,374.146
		l6.875-18.906H311.4v93.272h51.794v-18.9h-31.723v-19.311h27.529v-18.768h-27.529v-17.388H357.938z M421.531,395.229
		c-0.307,0.482-0.607,0.969-0.904,1.456c-0.121-0.193-0.245-0.389-0.364-0.587l-27.202-40.863h-17.769v93.283h20.064v-54.397
		l19.646,29.778h11.403l18.299-29.49v54.109h20.07v-93.283h-18.107L421.531,395.229z M526.973,374.146l6.862-18.906h-53.403v93.272
		h51.784v-18.9h-31.719v-19.311h27.533v-18.768h-27.533v-17.388H526.973z M604.213,411.111l-0.971-1.301l-40.796-54.575h-18.121
		v93.283h20.06v-57.04c0.197,0.257,0.397,0.518,0.607,0.783l42.166,56.257h17.122v-93.283h-20.067V411.111z M764.498,392.85
		c-8.47-4.87-13.653-8.12-13.653-13.347c0-5.443,6.156-6.254,9.822-6.254c5.377,0,11.318,1.808,16.302,4.959l0.337,0.214
		l6.513-17.907l-2.396-1.21c-6.183-3.122-13.334-4.703-21.262-4.703c-17.369,0-29.505,10.714-29.505,26.059
		c0,7.078,2.354,13.215,6.959,18.188c4.387,4.877,10.338,8.279,15.586,11.28c8.438,4.828,13.612,8.071,13.612,13.739
		c0,5.859-7.418,7.411-11.351,7.411c-8.175,0-14.119-4.028-15.751-5.266l-3.966-3.001l-6.764,18.603l0.561,0.38
		c7.784,5.253,16.386,7.804,26.308,7.804c18.423,0,31.792-11.389,31.792-27.082C787.642,406.172,774.805,398.783,764.498,392.85
		 M679.034,430.998c-15.627,0-25.332-11.011-25.332-28.732c0-17.72,9.705-28.732,25.329-28.732c15.63,0,25.341,11.01,25.341,28.732
		c0,17.722-9.711,28.732-25.341,28.732 M679.031,354.481c-12.806,0-24.561,4.75-33.101,13.365l-0.053,0.056
		c-8.4,8.782-13.031,21.034-13.031,34.495c0,14.306,5.147,26.981,14.494,35.708c8.288,7.655,19.244,11.693,31.69,11.693
		c12.889,0,24.187-4.383,32.698-12.699c8.788-8.743,13.623-21.158,13.623-34.958c0-12.843-4.028-24.229-11.649-32.951
		C705.333,359.705,693.021,354.481,679.031,354.481"/>
</g>
</svg>
